<svg width="213" height="58" viewBox="0 0 213 58" fill="none" xmlns="http://www.w3.org/2000/svg">
<g filter="url(#filter0_d_29_9)">
<rect x="4" width="205" height="50" rx="2" fill="#F98585"/>
</g>
<path d="M33.2852 31L33.3027 29.1807H36.0098C36.7949 29.1807 37.4512 29.0107 37.9785 28.6709C38.5059 28.3311 38.9043 27.8447 39.1738 27.2119C39.4434 26.5732 39.5781 25.8115 39.5781 24.9268V24.2588C39.5781 23.3506 39.4434 22.583 39.1738 21.9561C38.9102 21.3291 38.5176 20.8516 37.9961 20.5234C37.4746 20.1953 36.8389 20.0312 36.0889 20.0312H33.2324V18.2031H36.0889C37.2314 18.2031 38.2334 18.4551 39.0947 18.959C39.9619 19.4629 40.6387 20.1689 41.125 21.0771C41.6113 21.9854 41.8545 23.0518 41.8545 24.2764V24.9268C41.8545 26.1572 41.6113 27.2266 41.125 28.1348C40.6387 29.043 39.9561 29.749 39.0771 30.2529C38.2041 30.751 37.1816 31 36.0098 31H33.2852ZM34.5508 31H32.2832V18.2031H34.5508V31ZM43.4365 26.1572C43.4365 25.2314 43.6123 24.4053 43.9639 23.6787C44.3154 22.9521 44.8193 22.3779 45.4756 21.9561C46.1377 21.5283 46.9316 21.3145 47.8574 21.3145C48.7949 21.3145 49.5947 21.5283 50.2568 21.9561C50.9189 22.3779 51.4229 22.9521 51.7686 23.6787C52.1201 24.4053 52.2959 25.2314 52.2959 26.1572V26.3418C52.2959 27.2617 52.1201 28.0879 51.7686 28.8203C51.4229 29.5469 50.9189 30.1211 50.2568 30.543C49.6006 30.9648 48.8066 31.1758 47.875 31.1758C46.9434 31.1758 46.1465 30.9648 45.4844 30.543C44.8223 30.1211 44.3154 29.5469 43.9639 28.8203C43.6123 28.0879 43.4365 27.2617 43.4365 26.3418V26.1572ZM45.6162 26.3418C45.6162 26.9043 45.6953 27.4199 45.8535 27.8887C46.0117 28.3516 46.2549 28.7236 46.583 29.0049C46.917 29.2861 47.3477 29.4268 47.875 29.4268C48.3965 29.4268 48.8213 29.2861 49.1494 29.0049C49.4834 28.7236 49.7266 28.3516 49.8789 27.8887C50.0371 27.4199 50.1162 26.9043 50.1162 26.3418V26.1572C50.1162 25.6006 50.0371 25.0879 49.8789 24.6191C49.7266 24.1504 49.4834 23.7754 49.1494 23.4941C48.8154 23.207 48.3848 23.0635 47.8574 23.0635C47.3359 23.0635 46.9082 23.207 46.5742 23.4941C46.2461 23.7754 46.0029 24.1504 45.8447 24.6191C45.6924 25.0879 45.6162 25.6006 45.6162 26.1572V26.3418ZM58.835 21.4902H60.2236L59.8545 23.8105L57.6484 31H56.418L56.6465 28.8291L58.835 21.4902ZM57.1211 28.8555L57.2354 31H55.8555L53.2891 21.4902H55.416L57.1211 28.8555ZM63.8799 21.4902H65.998L63.4404 31H62.0605L62.2363 28.7676L63.8799 21.4902ZM62.623 28.75L62.8779 31H61.6387L59.4062 23.8018L59.0459 21.4902H60.4609L62.623 28.75ZM69.584 31H67.4043V21.4902H69.4521L69.584 23.5205V31ZM68.4941 25.9111C68.5 24.9912 68.6611 24.1885 68.9775 23.5029C69.2939 22.8115 69.7363 22.2754 70.3047 21.8945C70.873 21.5078 71.5352 21.3145 72.291 21.3145C72.9062 21.3145 73.4395 21.4316 73.8906 21.666C74.3418 21.8945 74.6934 22.2695 74.9453 22.791C75.1973 23.3066 75.3232 24.001 75.3232 24.874V31H73.1348V24.8564C73.1348 24.417 73.0703 24.0684 72.9414 23.8105C72.8184 23.5527 72.6309 23.3711 72.3789 23.2656C72.1328 23.1543 71.8311 23.0986 71.4736 23.0986C71.1104 23.0986 70.7881 23.1719 70.5068 23.3184C70.2314 23.459 69.9941 23.6582 69.7949 23.916C69.6016 24.1738 69.4521 24.4727 69.3467 24.8125C69.2471 25.1523 69.1973 25.5156 69.1973 25.9023L68.4941 25.9111ZM79.7881 31H77.6084V17.5H79.7881V31ZM81.6865 26.1572C81.6865 25.2314 81.8623 24.4053 82.2139 23.6787C82.5654 22.9521 83.0693 22.3779 83.7256 21.9561C84.3877 21.5283 85.1816 21.3145 86.1074 21.3145C87.0449 21.3145 87.8447 21.5283 88.5068 21.9561C89.1689 22.3779 89.6729 22.9521 90.0186 23.6787C90.3701 24.4053 90.5459 25.2314 90.5459 26.1572V26.3418C90.5459 27.2617 90.3701 28.0879 90.0186 28.8203C89.6729 29.5469 89.1689 30.1211 88.5068 30.543C87.8506 30.9648 87.0566 31.1758 86.125 31.1758C85.1934 31.1758 84.3965 30.9648 83.7344 30.543C83.0723 30.1211 82.5654 29.5469 82.2139 28.8203C81.8623 28.0879 81.6865 27.2617 81.6865 26.3418V26.1572ZM83.8662 26.3418C83.8662 26.9043 83.9453 27.4199 84.1035 27.8887C84.2617 28.3516 84.5049 28.7236 84.833 29.0049C85.167 29.2861 85.5977 29.4268 86.125 29.4268C86.6465 29.4268 87.0713 29.2861 87.3994 29.0049C87.7334 28.7236 87.9766 28.3516 88.1289 27.8887C88.2871 27.4199 88.3662 26.9043 88.3662 26.3418V26.1572C88.3662 25.6006 88.2871 25.0879 88.1289 24.6191C87.9766 24.1504 87.7334 23.7754 87.3994 23.4941C87.0654 23.207 86.6348 23.0635 86.1074 23.0635C85.5859 23.0635 85.1582 23.207 84.8242 23.4941C84.4961 23.7754 84.2529 24.1504 84.0947 24.6191C83.9424 25.0879 83.8662 25.6006 83.8662 26.1572V26.3418ZM97.6562 24.5752C97.6562 24.083 97.5186 23.6904 97.2432 23.3975C96.9736 23.1045 96.5635 22.958 96.0127 22.958C95.6846 22.958 95.3975 23.0166 95.1514 23.1338C94.9053 23.2451 94.7148 23.3975 94.5801 23.5908C94.4453 23.7842 94.3779 24.0039 94.3779 24.25H92.1982C92.1982 23.7402 92.3594 23.2627 92.6816 22.8174C93.0039 22.3662 93.458 22.0029 94.0439 21.7275C94.6357 21.4521 95.333 21.3145 96.1357 21.3145C96.8506 21.3145 97.4863 21.4346 98.043 21.6748C98.5996 21.915 99.0361 22.2783 99.3525 22.7646C99.6748 23.251 99.8359 23.8604 99.8359 24.5928V28.7852C99.8359 29.2305 99.8682 29.623 99.9326 29.9629C99.9971 30.3027 100.088 30.5986 100.205 30.8506V31H97.9727C97.873 30.7715 97.7939 30.4756 97.7354 30.1123C97.6826 29.749 97.6562 29.3945 97.6562 29.0488V24.5752ZM97.9902 26.5527H96.4961C95.7227 26.5527 95.1396 26.6963 94.7471 26.9834C94.3604 27.2646 94.167 27.6484 94.167 28.1348C94.167 28.5098 94.2959 28.8232 94.5537 29.0752C94.8115 29.3213 95.1748 29.4443 95.6436 29.4443C96.0713 29.4443 96.4434 29.3594 96.7598 29.1895C97.082 29.0137 97.334 28.7998 97.5156 28.5479C97.6973 28.29 97.791 28.0498 97.7969 27.8271L98.4912 28.8027C98.4209 29.043 98.3008 29.3008 98.1309 29.5762C97.9668 29.8457 97.7471 30.1035 97.4717 30.3496C97.2021 30.5898 96.8799 30.7891 96.5049 30.9473C96.1357 31.0996 95.7051 31.1758 95.2129 31.1758C94.5918 31.1758 94.0381 31.0527 93.5518 30.8066C93.0654 30.5605 92.6816 30.2236 92.4004 29.7959C92.125 29.3623 91.9873 28.876 91.9873 28.3369C91.9873 27.3291 92.3652 26.5557 93.1211 26.0166C93.877 25.4775 94.9492 25.208 96.3379 25.208H97.9727L97.9902 26.5527ZM107.816 17.5H109.996V31H108.019L107.816 29.0049V17.5ZM101.646 26.166C101.646 25.2051 101.796 24.3613 102.095 23.6348C102.399 22.9023 102.83 22.334 103.387 21.9297C103.943 21.5195 104.611 21.3145 105.391 21.3145C106.158 21.3145 106.8 21.5137 107.315 21.9121C107.831 22.3105 108.235 22.8643 108.528 23.5732C108.827 24.2764 109.026 25.0938 109.126 26.0254V26.5352C109.026 27.4375 108.83 28.2373 108.537 28.9346C108.244 29.6318 107.837 30.1797 107.315 30.5781C106.8 30.9766 106.152 31.1758 105.373 31.1758C104.605 31.1758 103.943 30.9678 103.387 30.5518C102.83 30.1299 102.399 29.5557 102.095 28.8291C101.796 28.1025 101.646 27.2764 101.646 26.3506V26.166ZM103.826 26.3506C103.826 26.9131 103.896 27.4258 104.037 27.8887C104.178 28.3457 104.4 28.7119 104.705 28.9873C105.016 29.2568 105.423 29.3916 105.927 29.3916C106.401 29.3916 106.791 29.2891 107.096 29.084C107.406 28.873 107.646 28.5889 107.816 28.2314C107.992 27.874 108.112 27.4727 108.177 27.0273V25.542C108.136 25.1904 108.062 24.8652 107.957 24.5664C107.852 24.2676 107.708 24.0098 107.526 23.793C107.351 23.5762 107.131 23.4062 106.867 23.2832C106.604 23.1602 106.296 23.0986 105.944 23.0986C105.44 23.0986 105.03 23.2363 104.714 23.5117C104.403 23.7812 104.178 24.1504 104.037 24.6191C103.896 25.082 103.826 25.5977 103.826 26.166V26.3506ZM121.431 18.2031C122.409 18.2031 123.244 18.3496 123.936 18.6426C124.627 18.9355 125.154 19.3691 125.518 19.9434C125.887 20.5176 126.071 21.2236 126.071 22.0615C126.071 22.7061 125.954 23.2715 125.72 23.7578C125.485 24.2441 125.151 24.6543 124.718 24.9883C124.29 25.3164 123.783 25.5713 123.197 25.7529L122.512 26.1045H118.46L118.442 24.2852H121.448C121.97 24.2852 122.403 24.1943 122.749 24.0127C123.101 23.8311 123.361 23.582 123.531 23.2656C123.707 22.9492 123.795 22.5889 123.795 22.1846C123.795 21.5283 123.604 21.0068 123.224 20.6201C122.849 20.2275 122.251 20.0312 121.431 20.0312H119.154V31H116.887V18.2031H121.431ZM121.167 25.2607L123.549 25.252L126.581 30.8857V31H124.155L121.167 25.2607ZM132.215 31.1758C131.271 31.1758 130.457 30.9736 129.771 30.5693C129.086 30.1592 128.559 29.6084 128.189 28.917C127.82 28.2197 127.636 27.4404 127.636 26.5791V26.2188C127.636 25.2285 127.823 24.3672 128.198 23.6348C128.573 22.8965 129.086 22.3252 129.736 21.9209C130.393 21.5166 131.134 21.3145 131.96 21.3145C132.874 21.3145 133.633 21.5137 134.236 21.9121C134.84 22.3047 135.291 22.8525 135.59 23.5557C135.889 24.2529 136.038 25.0615 136.038 25.9814V26.9219H128.682V25.3486H133.885V25.1816C133.873 24.8125 133.803 24.4668 133.674 24.1445C133.545 23.8223 133.34 23.5615 133.059 23.3623C132.783 23.1631 132.414 23.0635 131.951 23.0635C131.488 23.0635 131.099 23.1953 130.782 23.459C130.466 23.7168 130.226 24.083 130.062 24.5576C129.897 25.0264 129.815 25.5801 129.815 26.2188V26.5791C129.815 27.1182 129.915 27.6016 130.114 28.0293C130.313 28.457 130.604 28.7969 130.984 29.0488C131.365 29.2949 131.819 29.418 132.347 29.418C132.856 29.418 133.308 29.3184 133.7 29.1191C134.099 28.9199 134.441 28.6328 134.729 28.2578L135.871 29.4004C135.572 29.8516 135.121 30.2617 134.518 30.6309C133.92 30.9941 133.152 31.1758 132.215 31.1758ZM142.981 28.4072C142.981 28.208 142.929 28.0264 142.823 27.8623C142.724 27.6982 142.527 27.5459 142.234 27.4053C141.941 27.2646 141.511 27.1357 140.942 27.0186C140.269 26.8779 139.674 26.6904 139.158 26.4561C138.648 26.2217 138.25 25.9199 137.963 25.5508C137.682 25.1816 137.541 24.7305 137.541 24.1973C137.541 23.6816 137.688 23.207 137.98 22.7734C138.279 22.334 138.704 21.9824 139.255 21.7188C139.812 21.4492 140.468 21.3145 141.224 21.3145C142.021 21.3145 142.706 21.4492 143.28 21.7188C143.854 21.9824 144.294 22.3428 144.599 22.7998C144.909 23.251 145.064 23.7637 145.064 24.3379H142.885C142.885 23.9629 142.744 23.6348 142.463 23.3535C142.188 23.0664 141.771 22.9229 141.215 22.9229C140.869 22.9229 140.579 22.9785 140.345 23.0898C140.116 23.2012 139.943 23.3447 139.826 23.5205C139.715 23.6963 139.659 23.8896 139.659 24.1006C139.659 24.3057 139.715 24.4844 139.826 24.6367C139.943 24.7891 140.14 24.9238 140.415 25.041C140.696 25.1582 141.089 25.2695 141.593 25.375C142.319 25.5273 142.946 25.7207 143.474 25.9551C144.001 26.1836 144.405 26.4883 144.687 26.8691C144.974 27.2441 145.117 27.7217 145.117 28.3018C145.117 28.8584 144.956 29.3535 144.634 29.7871C144.317 30.2207 143.869 30.5605 143.289 30.8066C142.715 31.0527 142.035 31.1758 141.25 31.1758C140.377 31.1758 139.642 31.0205 139.044 30.71C138.446 30.3994 137.992 30.0039 137.682 29.5234C137.377 29.0371 137.225 28.5332 137.225 28.0117H139.325C139.349 28.3867 139.454 28.6885 139.642 28.917C139.835 29.1455 140.075 29.3125 140.362 29.418C140.655 29.5176 140.96 29.5674 141.276 29.5674C141.651 29.5674 141.962 29.5176 142.208 29.418C142.46 29.3184 142.65 29.1836 142.779 29.0137C142.914 28.8379 142.981 28.6357 142.981 28.4072ZM152.649 21.4902H154.829V31H152.772L152.649 28.75V21.4902ZM153.678 26.7461C153.678 27.6016 153.552 28.3633 153.3 29.0312C153.048 29.6934 152.655 30.2178 152.122 30.6045C151.589 30.9854 150.897 31.1758 150.048 31.1758C149.11 31.1758 148.352 30.9004 147.771 30.3496C147.191 29.7988 146.901 28.8936 146.901 27.6338V21.4902H149.081V27.6514C149.081 28.0908 149.148 28.4395 149.283 28.6973C149.424 28.9492 149.608 29.1279 149.837 29.2334C150.065 29.3389 150.317 29.3916 150.593 29.3916C151.185 29.3916 151.65 29.2773 151.99 29.0488C152.336 28.8145 152.582 28.498 152.729 28.0996C152.875 27.7012 152.948 27.2559 152.948 26.7637L153.678 26.7461ZM159.153 31H156.965V21.4902H159.021L159.153 23.4326V31ZM158.055 25.9111C158.055 25.0264 158.195 24.2383 158.477 23.5469C158.764 22.8555 159.188 22.3105 159.751 21.9121C160.313 21.5137 161.014 21.3145 161.852 21.3145C162.713 21.3145 163.422 21.5752 163.979 22.0967C164.535 22.6182 164.813 23.4736 164.813 24.6631V31H162.634V24.8652C162.634 24.4199 162.563 24.0684 162.423 23.8105C162.288 23.5527 162.095 23.3711 161.843 23.2656C161.597 23.1543 161.301 23.0986 160.955 23.0986C160.562 23.0986 160.229 23.1719 159.953 23.3184C159.684 23.459 159.464 23.6582 159.294 23.916C159.124 24.1738 158.998 24.4727 158.916 24.8125C158.84 25.1523 158.802 25.5156 158.802 25.9023L158.055 25.9111ZM163.653 25.6035C163.659 24.8242 163.803 24.1094 164.084 23.459C164.365 22.8086 164.781 22.29 165.332 21.9033C165.883 21.5107 166.562 21.3145 167.371 21.3145C168.016 21.3145 168.569 21.4346 169.032 21.6748C169.495 21.9092 169.853 22.2871 170.104 22.8086C170.356 23.3242 170.482 24.0098 170.482 24.8652V31H168.294V24.8477C168.294 24.3848 168.224 24.0273 168.083 23.7754C167.948 23.5176 167.755 23.3418 167.503 23.248C167.257 23.1484 166.964 23.0986 166.624 23.0986C166.302 23.0986 166.018 23.1572 165.771 23.2744C165.531 23.3916 165.329 23.5557 165.165 23.7666C165.007 23.9717 164.884 24.2148 164.796 24.4961C164.714 24.7715 164.673 25.0703 164.673 25.3926L163.653 25.6035ZM176.846 31.1758C175.902 31.1758 175.088 30.9736 174.402 30.5693C173.717 30.1592 173.189 29.6084 172.82 28.917C172.451 28.2197 172.267 27.4404 172.267 26.5791V26.2188C172.267 25.2285 172.454 24.3672 172.829 23.6348C173.204 22.8965 173.717 22.3252 174.367 21.9209C175.023 21.5166 175.765 21.3145 176.591 21.3145C177.505 21.3145 178.264 21.5137 178.867 21.9121C179.471 22.3047 179.922 22.8525 180.221 23.5557C180.52 24.2529 180.669 25.0615 180.669 25.9814V26.9219H173.312V25.3486H178.516V25.1816C178.504 24.8125 178.434 24.4668 178.305 24.1445C178.176 23.8223 177.971 23.5615 177.689 23.3623C177.414 23.1631 177.045 23.0635 176.582 23.0635C176.119 23.0635 175.729 23.1953 175.413 23.459C175.097 23.7168 174.856 24.083 174.692 24.5576C174.528 25.0264 174.446 25.5801 174.446 26.2188V26.5791C174.446 27.1182 174.546 27.6016 174.745 28.0293C174.944 28.457 175.234 28.7969 175.615 29.0488C175.996 29.2949 176.45 29.418 176.978 29.418C177.487 29.418 177.938 29.3184 178.331 29.1191C178.729 28.9199 179.072 28.6328 179.359 28.2578L180.502 29.4004C180.203 29.8516 179.752 30.2617 179.148 30.6309C178.551 30.9941 177.783 31.1758 176.846 31.1758Z" fill="white"/>
<defs>
<filter id="filter0_d_29_9" x="0" y="0" width="213" height="58" filterUnits="userSpaceOnUse" color-interpolation-filters="sRGB">
<feFlood flood-opacity="0" result="BackgroundImageFix"/>
<feColorMatrix in="SourceAlpha" type="matrix" values="0 0 0 0 0 0 0 0 0 0 0 0 0 0 0 0 0 0 127 0" result="hardAlpha"/>
<feOffset dy="4"/>
<feGaussianBlur stdDeviation="2"/>
<feComposite in2="hardAlpha" operator="out"/>
<feColorMatrix type="matrix" values="0 0 0 0 0.254167 0 0 0 0 0.253108 0 0 0 0 0.253108 0 0 0 0.54 0"/>
<feBlend mode="normal" in2="BackgroundImageFix" result="effect1_dropShadow_29_9"/>
<feBlend mode="normal" in="SourceGraphic" in2="effect1_dropShadow_29_9" result="shape"/>
</filter>
</defs>
</svg>
